<svg width="" height="" viewBox="0 0 451 264" fill="none" xmlns="http://www.w3.org/2000/svg">
<ellipse cx="225.5" cy="135" rx="225.5" ry="129" fill="#050505"/>
<g filter="url(#filter0_d)">
<path d="M177.43 45.375V164.086C177.273 168.93 176.414 173.539 174.852 177.914C173.367 182.211 171.219 186 168.406 189.281C165.516 192.562 162.039 195.18 157.977 197.133C153.914 199.008 149.305 199.945 144.148 199.945C139.148 199.945 134.617 199.125 130.555 197.484C126.57 195.844 123.133 193.5 120.242 190.453C117.352 187.484 115.047 183.969 113.328 179.906C111.688 175.844 110.75 171.43 110.516 166.664H88.4844C89.1875 174.555 90.9844 181.703 93.875 188.109C96.7656 194.438 100.633 199.828 105.477 204.281C110.242 208.812 115.867 212.289 122.352 214.711C128.914 217.133 136.18 218.344 144.148 218.344C152.039 218.344 159.305 217.016 165.945 214.359C172.664 211.625 178.484 207.836 183.406 202.992C188.328 198.227 192.195 192.523 195.008 185.883C197.898 179.242 199.422 171.977 199.578 164.086V45.375H177.43Z" fill="#A5EDFD"/>
<path d="M177.43 45.375V164.086C177.273 168.93 176.414 173.539 174.852 177.914C173.367 182.211 171.219 186 168.406 189.281C165.516 192.562 162.039 195.18 157.977 197.133C153.914 199.008 149.305 199.945 144.148 199.945C139.148 199.945 134.617 199.125 130.555 197.484C126.57 195.844 123.133 193.5 120.242 190.453C117.352 187.484 115.047 183.969 113.328 179.906C111.688 175.844 110.75 171.43 110.516 166.664H88.4844C89.1875 174.555 90.9844 181.703 93.875 188.109C96.7656 194.438 100.633 199.828 105.477 204.281C110.242 208.812 115.867 212.289 122.352 214.711C128.914 217.133 136.18 218.344 144.148 218.344C152.039 218.344 159.305 217.016 165.945 214.359C172.664 211.625 178.484 207.836 183.406 202.992C188.328 198.227 192.195 192.523 195.008 185.883C197.898 179.242 199.422 171.977 199.578 164.086V45.375H177.43Z" fill="url(#paint0_linear)"/>
</g>
<g filter="url(#filter1_d)">
<path d="M269.233 69L236.616 103L204 73V46L236.616 76L269.233 46H289V161H269.233V69Z" fill="#A5EDFD"/>
<path d="M269.233 69L236.616 103L204 73V46L236.616 76L269.233 46H289V161H269.233V69Z" fill="url(#paint1_linear)"/>
<path d="M269.233 69L236.616 103L204 73V46L236.616 76L269.233 46H289V161H269.233V69Z" stroke="#2E8DE3"/>
<path d="M269.233 69L236.616 103L204 73V46L236.616 76L269.233 46H289V161H269.233V69Z" stroke="url(#paint2_linear)"/>
</g>
<g filter="url(#filter2_d)">
<path d="M116.439 100.172L165.112 72.7239V59L95 100.172L165.112 144V131.161L116.439 100.172Z" fill="#2E8DE3"/>
<path d="M116.439 100.172L165.112 72.7239V59L95 100.172L165.112 144V131.161L116.439 100.172Z" fill="url(#paint3_linear)"/>
<path d="M116.439 100.172L165.112 72.7239V59L95 100.172L165.112 144V131.161L116.439 100.172Z" stroke="#2E8DE3" stroke-width="6"/>
<path d="M116.439 100.172L165.112 72.7239V59L95 100.172L165.112 144V131.161L116.439 100.172Z" stroke="url(#paint4_linear)" stroke-width="6"/>
</g>
<g filter="url(#filter3_d)">
<path d="M351.673 174.828L303 202.276V216L373.112 174.828L303 131V143.839L351.673 174.828Z" fill="#2E8DE3"/>
<path d="M351.673 174.828L303 202.276V216L373.112 174.828L303 131V143.839L351.673 174.828Z" fill="url(#paint5_linear)"/>
<path d="M351.673 174.828L303 202.276V216L373.112 174.828L303 131V143.839L351.673 174.828Z" stroke="#2E8DE3" stroke-width="6"/>
<path d="M351.673 174.828L303 202.276V216L373.112 174.828L303 131V143.839L351.673 174.828Z" stroke="url(#paint6_linear)" stroke-width="6"/>
</g>
<defs>
<filter id="filter0_d" x="84.4844" y="45.375" width="119.094" height="180.969" filterUnits="userSpaceOnUse" color-interpolation-filters="sRGB">
<feFlood flood-opacity="0" result="BackgroundImageFix"/>
<feColorMatrix in="SourceAlpha" type="matrix" values="0 0 0 0 0 0 0 0 0 0 0 0 0 0 0 0 0 0 127 0"/>
<feOffset dy="4"/>
<feGaussianBlur stdDeviation="2"/>
<feColorMatrix type="matrix" values="0 0 0 0 0 0 0 0 0 0 0 0 0 0 0 0 0 0 0.25 0"/>
<feBlend mode="normal" in2="BackgroundImageFix" result="effect1_dropShadow"/>
<feBlend mode="normal" in="SourceGraphic" in2="effect1_dropShadow" result="shape"/>
</filter>
<filter id="filter1_d" x="199.5" y="44.8608" width="94" height="124.639" filterUnits="userSpaceOnUse" color-interpolation-filters="sRGB">
<feFlood flood-opacity="0" result="BackgroundImageFix"/>
<feColorMatrix in="SourceAlpha" type="matrix" values="0 0 0 0 0 0 0 0 0 0 0 0 0 0 0 0 0 0 127 0"/>
<feOffset dy="4"/>
<feGaussianBlur stdDeviation="2"/>
<feColorMatrix type="matrix" values="0 0 0 0 0 0 0 0 0 0 0 0 0 0 0 0 0 0 0.25 0"/>
<feBlend mode="normal" in2="BackgroundImageFix" result="effect1_dropShadow"/>
<feBlend mode="normal" in="SourceGraphic" in2="effect1_dropShadow" result="shape"/>
</filter>
<filter id="filter2_d" x="85.212" y="53.7593" width="86.9002" height="103.654" filterUnits="userSpaceOnUse" color-interpolation-filters="sRGB">
<feFlood flood-opacity="0" result="BackgroundImageFix"/>
<feColorMatrix in="SourceAlpha" type="matrix" values="0 0 0 0 0 0 0 0 0 0 0 0 0 0 0 0 0 0 127 0"/>
<feOffset dy="4"/>
<feGaussianBlur stdDeviation="2"/>
<feColorMatrix type="matrix" values="0 0 0 0 0 0 0 0 0 0 0 0 0 0 0 0 0 0 0.25 0"/>
<feBlend mode="normal" in2="BackgroundImageFix" result="effect1_dropShadow"/>
<feBlend mode="normal" in="SourceGraphic" in2="effect1_dropShadow" result="shape"/>
</filter>
<filter id="filter3_d" x="296" y="125.587" width="86.9002" height="103.654" filterUnits="userSpaceOnUse" color-interpolation-filters="sRGB">
<feFlood flood-opacity="0" result="BackgroundImageFix"/>
<feColorMatrix in="SourceAlpha" type="matrix" values="0 0 0 0 0 0 0 0 0 0 0 0 0 0 0 0 0 0 127 0"/>
<feOffset dy="4"/>
<feGaussianBlur stdDeviation="2"/>
<feColorMatrix type="matrix" values="0 0 0 0 0 0 0 0 0 0 0 0 0 0 0 0 0 0 0.25 0"/>
<feBlend mode="normal" in2="BackgroundImageFix" result="effect1_dropShadow"/>
<feBlend mode="normal" in="SourceGraphic" in2="effect1_dropShadow" result="shape"/>
</filter>
<linearGradient id="paint0_linear" x1="177" y1="0" x2="177" y2="245" gradientUnits="userSpaceOnUse">
<stop offset="0.161458" stop-color="#2484F4" stop-opacity="0.963542"/>
<stop offset="0.244792" stop-color="#2484F4" stop-opacity="0.963542"/>
<stop offset="1" stop-color="#8FDEFF" stop-opacity="0"/>
</linearGradient>
<linearGradient id="paint1_linear" x1="246.5" y1="46" x2="246.5" y2="161" gradientUnits="userSpaceOnUse">
<stop stop-color="#8FDEFF" stop-opacity="0"/>
<stop offset="0.682292" stop-color="#2484F4" stop-opacity="0.963542"/>
<stop offset="0.895833" stop-color="#2484F4" stop-opacity="0.963542"/>
</linearGradient>
<linearGradient id="paint2_linear" x1="207.459" y1="25.8428" x2="207.459" y2="165.957" gradientUnits="userSpaceOnUse">
<stop offset="0.0555597" stop-color="#A5EDFD"/>
<stop offset="0.961117" stop-color="white" stop-opacity="0"/>
</linearGradient>
<linearGradient id="paint3_linear" x1="586.897" y1="40" x2="586.897" y2="125" gradientUnits="userSpaceOnUse">
<stop offset="0.208333" stop-color="#A5EDFD"/>
<stop offset="1" stop-color="white" stop-opacity="0"/>
</linearGradient>
<linearGradient id="paint4_linear" x1="586.897" y1="40" x2="586.897" y2="125" gradientUnits="userSpaceOnUse">
<stop offset="0.17041" stop-color="#A5EDFD"/>
<stop offset="1" stop-color="white" stop-opacity="0"/>
</linearGradient>
<linearGradient id="paint5_linear" x1="-118.784" y1="235" x2="-118.784" y2="150" gradientUnits="userSpaceOnUse">
<stop offset="0.208333" stop-color="#A5EDFD"/>
<stop offset="1" stop-color="white" stop-opacity="0"/>
</linearGradient>
<linearGradient id="paint6_linear" x1="-118.784" y1="235" x2="-118.784" y2="150" gradientUnits="userSpaceOnUse">
<stop offset="0.17041" stop-color="#A5EDFD"/>
<stop offset="1" stop-color="white" stop-opacity="0"/>
</linearGradient>
</defs>
</svg>
